# xmcd
#
# Track frame offsets:
#       150
#       19025
#       36771
#       54268
#       71746
#       91791
#       105991
#       121201
#       132965
#       149102
#
# Disc length: 2471 seconds
#
# Revision: 1
# Processed by: cddbd v1.5.2PL0 Copyright (c) Steve Scherf et al.
# Submitted via: FreeDbEdit v0.1
#
DISCID=8309a50a
DTITLE=Janis Joplin - Greatest Hits
DYEAR=1900
DGENRE=
TTITLE0=Piece of My Heart
TTITLE1=Summertime
TTITLE2=Try (Just a Little Bit Harder)
TTITLE3=Cry Baby
TTITLE4=Me and Bobby McGee
TTITLE5=Down on Me
TTITLE6=Get It While You Can
TTITLE7=Bye Bye Baby
TTITLE8=Move Over
TTITLE9=Ball and Chain
EXTD=
EXTT0=
EXTT1=
EXTT2=
EXTT3=
EXTT4=
EXTT5=
EXTT6=
EXTT7=
EXTT8=
EXTT9=
PLAYORDER=
